<svg id="Pointer" xmlns="http://www.w3.org/2000/svg" width="25.306" height="42.612" viewBox="0 0 25.306 42.612">
  <path id="Trazado_7" data-name="Trazado 7" d="M12.653,0A12.653,12.653,0,0,1,25.306,12.653c0,6.988-12.653,29.96-12.653,29.96S0,19.641,0,12.653A12.653,12.653,0,0,1,12.653,0Z" fill="#ff6000"/>
  <rect id="Rectángulo_371" data-name="Rectángulo 371" width="15" height="15" transform="translate(5.898 5.323)" fill="#fff"/>
  <g id="Grupo_4626" data-name="Grupo 4626" transform="translate(4.62 4.625)">
    <path id="Trazado_22" data-name="Trazado 22" d="M47.531,186.57a.572.572,0,0,0-.571-.572H31.586a.572.572,0,0,0-.572.572v15.257a.572.572,0,0,0,.572.572H46.959a.571.571,0,0,0,.571-.572Zm-2.3,12.531-.8.968a.213.213,0,0,1-.3.03,14.741,14.741,0,0,1-1.291-1.2h0c-.15-.138-.189-.205-.3-.21s-.171.1-.206.13a5,5,0,0,1-8.037-.206,9.822,9.822,0,0,1,0-8.838,5,5,0,0,1,8.037-.206c.035.033.1.134.207.13s.267-.178.3-.21h0a13.145,13.145,0,0,1,1.293-1.2.213.213,0,0,1,.3.031l.8.968a.213.213,0,0,1,0,.272,7.786,7.786,0,0,0-1.858,4.542c0,.031,0,.062,0,.093s0,.062,0,.093a7.788,7.788,0,0,0,1.858,4.542A.213.213,0,0,1,45.228,199.1Z" transform="translate(-31.014 -185.998)" fill="#ff6000"/>
    <path id="Trazado_23" data-name="Trazado 23" d="M69.022,211.927h-.006a2.406,2.406,0,0,0-2.071,1.087,9.3,9.3,0,0,0,0,7.572,2.406,2.406,0,0,0,2.071,1.088h.006a2.406,2.406,0,0,0,2.071-1.088,9.3,9.3,0,0,0,0-7.572A2.406,2.406,0,0,0,69.022,211.927Z" transform="translate(-61.639 -208.605)" fill="#ff6000"/>
  </g>
</svg>
